<svg xmlns="http://www.w3.org/2000/svg" viewBox="0 0 48 48">
  <path fill="#fff" d="M24,4C12.954,4,4,12.954,4,24s8.954,20,20,20s20-8.954,20-20S35.046,4,24,4z"/>
  <path fill="#00b900" d="M24,4C12.954,4,4,12.954,4,24s8.954,20,20,20s20-8.954,20-20S35.046,4,24,4z M36.5,27.5 c0,0.552-0.448,1-1,1H32v3.5c0,0.552-0.448,1-1,1s-1-0.448-1-1V25c0-0.552,0.448-1,1-1h4.5c0.552,0,1,0.448,1,1V27.5z M27,31 c0,0.552-0.448,1-1,1s-1-0.448-1-1V25c0-0.552,0.448-1,1-1s1,0.448,1,1V31z M22,31c0,0.552-0.448,1-1,1s-1-0.448-1-1v-4.5h-2.5 c-0.552,0-1-0.448-1-1V25c0-0.552,0.448-1,1-1H21c0.552,0,1,0.448,1,1V31z M17,31c0,0.552-0.448,1-1,1s-1-0.448-1-1V25 c0-0.552,0.448-1,1-1h4.5c0.552,0,1,0.448,1,1s-0.448,1-1,1H17V31z"/>
</svg> 